<svg
   width="75"
   height="75"
   viewBox="0 0 75 75"
   fill="none"
   xmlns="http://www.w3.org/2000/svg">
   <path
      d="m 64.016504,10.983496 c 13.645747,13.645746 14.747207,35.056728 3.250429,49.78258 L 54.32504,47.824183 C 58.936296,40.265848 57.939558,30.225498 51.35703,23.64297 44.774502,17.060442 34.734152,16.063704 27.175817,20.67496 L 14.233924,7.7330673 C 28.959798,-3.76369 50.370758,-2.662251 64.016504,10.983496 Z"
      fill="#17171b"
   />
   <path
      d="M 47.824183,54.32504 60.766076,67.266933 C 46.040224,78.763711 24.629242,77.662251 10.983496,64.016504 -2.662251,50.370758 -3.76369,28.959798 7.7330673,14.233924 L 20.67496,27.175817 c -4.611256,7.558335 -3.614518,17.598685 2.96801,24.181213 6.582528,6.582528 16.622878,7.579266 24.181213,2.96801 z"
      fill="#17171b"
   />
   <path
      d="M37.5 49.8387C44.3655 49.8387 49.9312 44.3145 49.9312 37.5C49.9312 30.6855 44.3655 25.1613 37.5 25.1613C30.6345 25.1613 25.0688 30.6855 25.0688 37.5C25.0688 44.3145 30.6345 49.8387 37.5 49.8387Z"
      fill="#17171B"
   />
</svg>
